<?xml version="1.0" encoding="UTF-8"?>
<svg version="1.1" viewBox="0 0 1945.3 243.97" xml:space="preserve" xmlns="http://www.w3.org/2000/svg" fill="#FFFFFF">
<path d="m1634.7 0.084496c-36.658 1.1579-68.045 14.345-87.607 47.551-23.78 40.37-46.76 48.609-74.08 54.109a4.28 4.28 0 0 0-0.58 8.2402c52.63 18.45 104.67 13.791 134-0.54883 44.07-21.54 62.331-76.12 99.111-92.08a4.28 4.28 0 0 0-0.5801-8.0898c-24.375-6.24-48.269-9.8764-70.264-9.1816zm-1344.2 3.0605a32.5 32.5 0 0 0-32.5 32.5v175.82a32.5 32.5 0 0 0 65 0v-175.82a32.5 32.5 0 0 0-32.5-32.5zm650.96 0a32.5 32.5 0 0 0-32.5 32.5v175.82a32.5 32.5 0 0 0 65 0v-175.82a32.5 32.5 0 0 0-32.5-32.5zm816.43 0a32.5 32.5 0 0 0-32.5 32.5v175.82a32.5 32.5 0 0 0 65 0v-175.82a32.5 32.5 0 0 0-32.5-32.5zm-1566.9 0.01c-18.22-0.35-33.129 14.911-33.129 33.131a4.53 4.53 0 0 1-4.5312 4.5293h-122.74c-16.35 0-30.171 12.82-30.611 29.16a30 30 0 0 0 30 30.84h123.4a4.53 4.53 0 0 1 4.5293 4.5293v105.48c0 18.23 14.911 33.491 33.131 33.141a32.51 32.51 0 0 0 31.869-32.5v-175.82a32.49 32.49 0 0 0-31.92-32.49zm1094.3 0.16992a26.25 26.25 0 0 0-27 26.24v11.51a9.45 9.45 0 0 1-9.4492 9.4512h-15.891c-14.31 0-26.399 11.21-26.789 25.51a26.25 26.25 0 0 0 26.24 27h17.75a9.4 9.4 0 0 1 9.0801 6.8398 26.25 26.25 0 0 0 50.629 0 9.39 9.39 0 0 1 9.0801-6.8398h114.89a26.25 26.25 0 0 0 26.24-27c-0.41-14.22-12.511-25.43-26.801-25.43h-15a9.46 9.46 0 0 1-9.459-9.4512v-11c0-14.31-11.212-26.399-25.512-26.789a26.25 26.25 0 0 0-27 26.24v11.51a9.45 9.45 0 0 1-9.4493 9.4492h-26.59a9.46 9.46 0 0 1-9.4609-9.4492v-11c0-14.31-11.21-26.401-25.51-26.791zm-803.87 11.461c-16.35 0-30.169 12.82-30.609 29.16a30 30 0 0 0 30 30.84h117.89a7.72 7.72 0 0 1 7 11l-11.43 24.699a28.753 28.753 0 1 0 52.189 24.15l35.92-77.65c6.47-14 1.1808-30.93-12.449-38.1a28.66 28.66 0 0 0-11.49-3.2402 29.91 29.91 0 0 0-7.1191-0.85937zm540.25 4.5586a26.93 26.93 0 0 0-26.93 26.932 26.93 26.93 0 0 0 26.93 26.93 26.93 26.93 0 0 0 26.93-26.93 26.93 26.93 0 0 0-26.93-26.932zm61.891 0a26.93 26.93 0 0 0-26.932 26.932 26.93 26.93 0 0 0 26.932 26.93 26.93 26.93 0 0 0 26.93-26.93 26.93 26.93 0 0 0-26.93-26.932zm-705.93 74.678c-11.127-0.15844-22.732 0.52515-34.332 1.4726-4.22 0.35-6.7084 4.4098-4.8184 7.8399 3.35 6.06 5.0601 13.25 10.33 25.48 10.74 24.92 25.53 40.711 47.17 50.551 15.92 7.24 52.229 4.63 70.299 2.75 4.47-0.46 6.81-5.0797 4.25-8.4297-5.2-6.82-11.319-20.351-18.629-39.781-11.798-31.342-40.888-39.407-74.27-39.883zm650.96 0c-11.129-0.15844-22.735 0.52515-34.338 1.4726-4.21 0.35-6.7105 4.4098-4.8105 7.8399 3.35 6.06 5.0601 13.25 10.33 25.48 10.73 24.92 25.53 40.711 47.16 50.551 15.93 7.24 52.241 4.63 70.301 2.75 4.48-0.46 6.8198-5.0797 4.2598-8.4297-5.2-6.82-11.331-20.351-18.641-39.781-11.79-31.342-40.876-39.407-74.262-39.883zm818.29 0c-11.647-0.15844-23.795 0.52515-35.938 1.4726-4.42 0.35-7 4.4098-5 7.8399 3.5 6.06 5.3005 13.25 10.81 25.48 11.24 24.92 26.719 40.711 49.369 50.551 16.66 7.24 54.67 4.63 73.58 2.75 4.65-0.46 7.09-5.0797 4.42-8.4297-5.45-6.82-11.86-20.351-19.51-39.781-12.345-31.342-42.79-39.407-77.732-39.883zm-1077.5 8.2109a26.93 26.93 0 0 0-3.5059 0.33594 26.93 26.93 0 0 0-22.268 30.898 26.93 26.93 0 0 0 30.898 22.266 26.93 26.93 0 0 0 22.266-30.896 26.93 26.93 0 0 0-27.391-22.604zm-61.092 0.0332a26.93 26.93 0 0 0-26.93 26.93 26.93 26.93 0 0 0 26.93 26.93 26.93 26.93 0 0 0 26.93-26.93 26.93 26.93 0 0 0-26.93-26.93zm458.81 0a26.93 26.93 0 0 0-26.932 26.93 26.93 26.93 0 0 0 26.932 26.93 26.93 26.93 0 0 0 26.93-26.93 26.93 26.93 0 0 0-26.93-26.93zm-1044.4 21.078c-5.565-0.036-11.445 0.2709-16.945 1.2109-10.8 1.85-66.66 7.0693-80.35 72.779-1.38 6.62-6.2491 12.07-10.539 15.74a5.4 5.4 0 0 0 1.8281 9.2208c10.18 3.34 29.002 6.3192 56.762-1.8008 25.43-7.43 44.56-34.89 54-62a92.94 92.94 0 0 1 14.08-25.629 5.42 5.42 0 0 0-3.7812-8.67c-4.24-0.435-9.4897-0.8153-15.055-0.8515zm1274 2.6152c-6.23-0.038-12.81 0.315-18.965 1.375-12.11 2.08-74.711 8.0016-90.061 82.102-1.54 7.46-7.0005 13.61-11.81 17.75a6.12 6.12 0 0 0 2 10.408c11.41 3.76 32.511 7.12 63.621-2 28.5-8.39 49.939-39.37 60.469-70a104.93 104.93 0 0 1 15.77-28.879 6.12 6.12 0 0 0-4.1582-9.791c-4.755-0.5-10.635-0.9274-16.865-0.9649zm195.55 6.7266a32.51 32.51 0 0 0-32.5 32.5v45.279a32.5 32.5 0 0 0 65 0v-45.279a32.51 32.51 0 0 0-32.5-32.5zm-713 3.0058c-0.25004 0-0.50492 0.01-0.76367 0.033-45.56 4.54-90.45 13.159-98.26 56.359-3.64 20.1-7.17 34.271-11 41.781-1.88 3.7 1.1994 7.7501 5.6094 7.4101 17.81-1.38 53.4-5.2815 67.52-15.102 19.2-13.35 30.709-31.19 36.689-57.19 2.93-12.77 3.3202-20 5.4902-26.48 1.1438-3.4687-1.5345-6.7605-5.2852-6.8125zm-344.23 9.7813c-11.629 0.2956-23.725 1.4929-35.805 2.9629-4.39 0.53-6.8192 4.8886-4.6992 8.3886 3.75 6.19 5.8298 13.62 11.84 26.17 12.24 25.57 28.34 41.45 51.33 50.83 16.93 6.9001 54.74 2.68 73.52 0 4.65-0.67 6.9116-5.58 4.1016-9-5.7-6.92-12.652-20.78-21.092-40.77-13.605-32.25-44.308-39.469-79.195-38.582z" />
</svg>
